<svg viewBox="0 0 337 100" fill="none" xmlns="http://www.w3.org/2000/svg"><path d="M324.516 100H12.484C5.618 100 0 94.373 0 87.498V12.502C0 5.627 5.618 0 12.484 0h312.032C331.382 0 337 5.627 337 12.502v74.996c0 6.875-5.618 12.502-12.484 12.502Z" fill="#12100B"/><path d="M324.516 0H12.484C5.618 0 0 5.627 0 12.502v74.996C0 94.373 5.618 100 12.484 100h312.032C331.382 100 337 94.373 337 87.498V12.502C337 5.627 331.382 0 324.516 0Zm0 2c5.781 0 10.486 4.713 10.486 10.502v74.996c0 5.789-4.705 10.501-10.486 10.501H12.484c-5.78 0-10.486-4.712-10.486-10.501V12.502c0-5.794 4.7-10.501 10.486-10.501h312.032Z" fill="#12100B"/><path d="M107.136 41.884a10.502 10.502 0 0 1-3.918-3.866c-.965-1.64-1.45-3.464-1.45-5.475 0-2.012.485-3.84 1.45-5.475a10.538 10.538 0 0 1 3.918-3.867c1.643-.94 3.443-1.41 5.399-1.41 1.57 0 3.015.277 4.335.836 1.32.554 2.442 1.332 3.36 2.33l-2.181 2.184c-1.398-1.573-3.234-2.356-5.514-2.356a7.673 7.673 0 0 0-3.761.96c-1.169.643-2.097 1.558-2.786 2.749-.689 1.191-1.033 2.539-1.033 4.054 0 1.515.35 2.889 1.049 4.07.699 1.18 1.627 2.09 2.785 2.732a7.654 7.654 0 0 0 3.777.961c2.165 0 3.923-.679 5.285-2.042.438-.423.808-.956 1.106-1.61a7.903 7.903 0 0 0 .615-2.157h-7.063v-2.79h9.99c.115.653.172 1.207.172 1.667a11.21 11.21 0 0 1-.615 3.725 8.522 8.522 0 0 1-1.91 3.119 9.162 9.162 0 0 1-3.302 2.288c-1.283.527-2.718.789-4.304.789-1.951 0-3.751-.47-5.399-1.41l-.005-.006Zm21.649.386a7.158 7.158 0 0 1-2.728-2.805c-.652-1.186-.976-2.513-.976-3.965 0-1.453.324-2.78.976-3.966a7.229 7.229 0 0 1 2.728-2.805c1.169-.68 2.488-1.019 3.96-1.019 1.471 0 2.764.345 3.933 1.035a7.284 7.284 0 0 1 2.728 2.816c.652 1.19.976 2.502.976 3.939 0 1.436-.324 2.78-.976 3.965a7.257 7.257 0 0 1-2.712 2.805c-1.158.68-2.473 1.02-3.949 1.02-1.477 0-2.797-.34-3.96-1.02Zm6.229-2.429c.688-.402 1.241-.977 1.664-1.724.423-.747.631-1.62.631-2.617 0-.998-.208-1.87-.631-2.618-.423-.747-.976-1.321-1.664-1.724a4.421 4.421 0 0 0-2.269-.606 4.472 4.472 0 0 0-3.96 2.33c-.422.747-.631 1.62-.631 2.618 0 .998.209 1.87.631 2.617.423.747.981 1.322 1.68 1.724a4.5 4.5 0 0 0 2.28.606c.819 0 1.58-.204 2.269-.606Zm11.195 2.429a7.152 7.152 0 0 1-2.728-2.805c-.652-1.186-.976-2.513-.976-3.965 0-1.453.324-2.78.976-3.966a7.222 7.222 0 0 1 2.728-2.805c1.168-.68 2.488-1.019 3.959-1.019 1.472 0 2.765.345 3.934 1.035a7.291 7.291 0 0 1 2.728 2.816c.652 1.19.976 2.502.976 3.939 0 1.436-.324 2.78-.976 3.965a7.257 7.257 0 0 1-2.712 2.805c-1.159.68-2.473 1.02-3.95 1.02-1.476 0-2.796-.34-3.959-1.02Zm6.229-2.429c.688-.402 1.241-.977 1.664-1.724.422-.747.631-1.62.631-2.617 0-.998-.209-1.87-.631-2.618-.423-.747-.976-1.321-1.664-1.724a4.422 4.422 0 0 0-2.27-.606 4.47 4.47 0 0 0-3.959 2.33c-.423.747-.631 1.62-.631 2.618 0 .998.208 1.87.631 2.617.423.747.981 1.322 1.68 1.724.699.402 1.46.606 2.279.606s1.581-.204 2.27-.606Zm10.433 8.438c-1.179-.815-1.967-1.798-2.368-2.947l2.869-1.207a4.049 4.049 0 0 0 1.508 1.897c.699.48 1.507.72 2.425.72 1.357 0 2.421-.417 3.188-1.253.767-.836 1.147-2.012 1.147-3.521v-1.411h-.172a4.938 4.938 0 0 1-1.925 1.666c-.803.403-1.721.607-2.754.607a6.538 6.538 0 0 1-3.433-.94c-1.043-.628-1.878-1.516-2.498-2.665-.621-1.15-.934-2.466-.934-3.945 0-1.478.313-2.795.934-3.944.62-1.15 1.455-2.043 2.498-2.675a6.458 6.458 0 0 1 3.433-.956c1.012 0 1.93.209 2.744.616.814.413 1.461.972 1.935 1.683h.172v-1.84h2.958v13.887c0 1.573-.307 2.92-.918 4.038a6.07 6.07 0 0 1-2.572 2.545c-1.1.575-2.368.862-3.803.862-1.779 0-3.26-.408-4.434-1.223v.006Zm6.615-8.835c.652-.376 1.174-.92 1.565-1.63.391-.705.589-1.551.589-2.534 0-.982-.198-1.86-.589-2.575-.391-.716-.913-1.26-1.565-1.63a4.27 4.27 0 0 0-2.155-.554 4.32 4.32 0 0 0-2.164.554c-.658.37-1.185.909-1.581 1.63-.391.715-.59 1.577-.59 2.575 0 .998.199 1.834.59 2.55.391.715.918 1.259 1.581 1.63.662.37 1.382.554 2.164.554a4.24 4.24 0 0 0 2.155-.565v-.005Zm8.79-17.199h3.099V42.83h-3.099V22.245Zm14.033 21.049c1.523 0 2.817-.344 3.876-1.034 1.064-.69 1.868-1.468 2.442-2.33l-2.583-1.724c-.949 1.41-2.212 2.1-3.735 2.1-1.664 0-2.9-.778-3.678-2.299l10.136-4.2-.344-.862c-.433-1.18-1.205-2.299-2.269-3.307s-2.468-1.526-4.22-1.526a7.057 7.057 0 0 0-3.59.951 7.074 7.074 0 0 0-2.582 2.707c-.662 1.149-.975 2.47-.975 3.939 0 1.468.318 2.675.975 3.824.663 1.18 1.549 2.1 2.702 2.764 1.148.663 2.442 1.008 3.85 1.008l-.005-.01Zm-4.22-7.82c-.032-.92.172-1.724.574-2.388.401-.663.918-1.18 1.549-1.525.631-.345 1.236-.518 1.836-.518.663 0 1.237.147 1.753.434.517.319.861.69 1.064 1.18l-6.776 2.822v-.005Zm19.808 7.36h3.218v-7.993h3.908c1.205 0 2.326-.26 3.359-.804 1.007-.549 1.837-1.296 2.442-2.241.605-.951.892-2.043.892-3.25 0-1.207-.287-2.299-.892-3.25-.605-.95-1.435-1.697-2.442-2.24-1.033-.55-2.154-.805-3.359-.805h-7.121v20.594l-.005-.01Zm3.218-11.044v-6.473h3.965c.72 0 1.32.147 1.836.46.517.314.919.721 1.179 1.207.261.486.402 1.008.402 1.552 0 .543-.146 1.065-.402 1.551-.26.491-.662.894-1.179 1.207-.516.314-1.121.491-1.836.491h-3.965v.005Zm13.376 11.045h3.161V22.24h-3.161v20.595Zm11.487.46c1.007 0 1.868-.204 2.645-.633.777-.433 1.351-.95 1.779-1.583h.146v1.756h3.104v-9.148c0-1.897-.574-3.365-1.721-4.43-1.148-1.035-2.786-1.552-4.909-1.552a8.038 8.038 0 0 0-3.449.747 6.65 6.65 0 0 0-2.525 2.1l2.212 1.698a4.154 4.154 0 0 1 1.607-1.353 4.758 4.758 0 0 1 2.097-.491c1.064 0 1.925.287 2.582.836.663.575 1.007 1.322 1.007 2.215v.747c-.401-.204-.949-.376-1.638-.548a11.208 11.208 0 0 0-2.326-.23c-1.753 0-3.188.433-4.309 1.321-1.148.894-1.722 2.07-1.722 3.595 0 .95.23 1.813.689 2.56a4.357 4.357 0 0 0 1.925 1.755c.834.434 1.752.632 2.817.632l-.011.005Zm.548-2.618c-.835 0-1.492-.23-2.008-.663-.517-.434-.778-.977-.778-1.64 0-.748.287-1.354.835-1.84.548-.46 1.435-.69 2.614-.69a7.96 7.96 0 0 1 1.836.23c.574.147 1.09.345 1.523.606 0 .721-.172 1.38-.516 1.986a4.159 4.159 0 0 1-1.435 1.468c-.6.376-1.294.548-2.066.548l-.005-.005Zm14.362 1.348-6.114-13.855h3.443l4.189 10.005h.141l4.048-10.005h3.417l-9.041 20.871h-3.302l3.213-7.016h.006Zm16.907-5.287c-1.779 0-2.874-2.33-2.874-6.442 0-4.111 1.09-6.415 2.874-6.415s2.874 2.298 2.874 6.415-1.09 6.442-2.874 6.442Zm8.3-7.821h-2.786c-.318-4.859-2.41-7.82-5.514-7.82-3.36 0-5.571 3.51-5.571 9.204 0 5.695 2.211 9.232 5.571 9.232 3.161 0 5.285-3.109 5.545-8.171h2.76v12.455h2.76V19.565h-2.76v9.347l-.005.005Zm5.196-9.838v25.945h2.817v-25.95h-2.817v.005Zm16.13 2.1h-2.989v4.285c0 4.858-2.525 9.863-6.579 11.849l1.868 2.356c2.958-1.526 5.081-4.545 6.234-8.229 1.121 3.48 3.219 6.327 6.145 7.795l1.753-2.387c-3.965-1.84-6.432-6.557-6.432-11.39v-4.284.006Zm9.16-2.157v8.542h-5.545v2.413h5.545v15.099h2.989v-26.06h-2.989v.006ZM117.569 68.048h-3.062v10.26h-2.238V58.633h2.238v7.565h3.062v1.85Zm-15.222 3.568c3.172-.021 5.556-.152 8.294-.632l.24 1.85c-2.973.542-5.623.652-9.16.652h-1.607V60.504h9.119v1.828h-6.881v9.284h-.005Zm21.858-8.526c0 1.39 1.8 2.194 4.58 2.194 2.781 0 4.56-.805 4.56-2.194 0-1.39-1.8-2.195-4.56-2.195s-4.58.805-4.58 2.195Zm.151 13.003h11.378v1.829h-13.637v-5.805h2.259v3.976Zm-2.52-13.003c0-2.456 2.734-4.002 6.949-4.002s6.949 1.546 6.949 4.002c0 2.455-2.76 4.002-6.949 4.002s-6.949-1.547-6.949-4.002Zm15.849 5.329v1.828h-7.601v3.72h-2.28v-3.72h-7.903V68.42h17.784Zm19.526 5.721v1.844h-17.763v-1.845h7.731V70.79h-5.582v-6.326h11.289V61.83h-11.33v-1.803h13.547v6.217h-11.315v2.738h11.748v1.807h-6.124v3.35h7.799Zm18.452-4.415h-13.59v-9.352h13.438v1.829h-11.205v5.72h11.357v1.803Zm2.018 4.195v1.85h-17.783v-1.85h17.783Z" fill="#fff"/><path d="M51.723 48.55 25.138 76.798a7.184 7.184 0 0 0 6.94 5.325 7 7 0 0 0 3.644-1l.075-.05 29.906-17.275-14.005-15.275.025.025Z" fill="#EA4335"/><path d="M78.608 43.75h-.025l-12.905-7.526L51.124 49.2l14.604 14.625L78.583 56.4a7.203 7.203 0 0 0 3.77-6.325c0-2.725-1.498-5.1-3.745-6.3v-.025Z" fill="#FBBC04"/><path d="M25.138 23.2c-.15.6-.25 1.2-.25 1.85v49.899c0 .65.075 1.25.25 1.85l27.484-27.525L25.138 23.2Z" fill="#4285F4"/><path d="m51.923 50 13.755-13.776-29.881-17.35a7.155 7.155 0 0 0-3.72-1.024c-3.32 0-6.115 2.275-6.94 5.325l26.786 26.8v.024Z" fill="#34A853"/></svg>